# xmcd
#
# Track frame offsets: 
#        150
#        15825
#        32935
#        47602
#        59240
#        72230
#        87617
#        101387
#        116152
#        129227
#        144615
#        156967
#
# Disc length: 2342 seconds
#
# Revision: 0
# Processed by: cddbd v1.5.1PL2 Copyright (c) Steve Scherf et al.
# Submitted via: ExactAudioCopy v0.95b2
#
DISCID=a709240c
DTITLE=Γιώργος Μαργαρίτης - Ο ’γνωστος
DYEAR=1900
DGENRE=Folk
TTITLE0=Ο ’γνωστος
TTITLE1=Εσύ Δεν Είσαι Έρωτας
TTITLE2=Ο ’νθρωπος Μετράει
TTITLE3=Εγώ Είμαι Μόνος Μου (Το Αφεντικό)
TTITLE4=Κοίτα Τα Έργα Σου
TTITLE5=Γιατί Μετράς Τα Λάθη Μου
TTITLE6=Η Αλάνα
TTITLE7=Είσαι Ατελείωτη
TTITLE8=Αχάριστη
TTITLE9=Ο Ναυτικός
TTITLE10=Τα Λευκά Τα Κοκαλάκια
TTITLE11=Το Μοιραίο Ραντεβού
EXTD=
EXTT0=
EXTT1=
EXTT2=
EXTT3=
EXTT4=
EXTT5=
EXTT6=
EXTT7=
EXTT8=
EXTT9=
EXTT10=
EXTT11=
PLAYORDER=
